<?xml version="1.0" encoding="utf-8"?>
<!-- Generator: Adobe Illustrator 21.1.0, SVG Export Plug-In . SVG Version: 6.00 Build 0)  -->
<svg version="1.1" id="Слой_1" xmlns="http://www.w3.org/2000/svg" xmlns:xlink="http://www.w3.org/1999/xlink" x="0px" y="0px"
	 viewBox="0 0 99 81" style="enable-background:new 0 0 99 81;" xml:space="preserve">
<style type="text/css">
	.st0{clip-path:url(#SVGID_2_);fill:#9F9F57;}
</style>
<g>
	<defs>
		<rect id="SVGID_1_" y="0" width="95.4" height="76.6"/>
	</defs>
	<clipPath id="SVGID_2_">
		<use xlink:href="#SVGID_1_"  style="overflow:visible;"/>
	</clipPath>
	<path class="st0" d="M55.1,28l13.2,22.2l13.8-22.1c0-0.1,0.1-0.2,0.1-0.3c1.6-2.6,2.5-5.6,2.5-8.6v0c0-4.3-1.7-8.4-4.7-11.4
		c-3-3.1-7.1-4.7-11.4-4.7h0c-8.9,0-16.1,7.2-16.1,16.1c0,3,0.9,6,2.5,8.6C55.1,27.8,55.1,27.9,55.1,28 M68.3,54.7L68.3,54.7
		c-0.6,0-1-0.3-1.3-0.8L52.4,29.4c0-0.1-0.1-0.1-0.1-0.2c-1.8-3-2.8-6.4-2.8-10C49.5,8.6,58.1,0,68.7,0h0c5.1,0,10,2,13.6,5.7
		c3.6,3.6,5.6,8.5,5.6,13.6c0,3.5-1,6.9-2.8,9.9c0,0.1-0.1,0.2-0.1,0.3L69.6,54C69.3,54.4,68.9,54.7,68.3,54.7"/>
	<path class="st0" d="M75.3,18.3L75.3,18.3L75.3,18.3z M68.7,13.2c-1.3,0-2.6,0.5-3.6,1.5c-1,1-1.5,2.2-1.5,3.6
		c0,1.4,0.5,2.6,1.5,3.6c1,1,2.2,1.5,3.6,1.5h0c1.3,0,2.6-0.5,3.6-1.5c1-1,1.5-2.2,1.5-3.6C73.7,15.5,71.5,13.2,68.7,13.2
		C68.7,13.2,68.7,13.2,68.7,13.2 M68.7,26.4L68.7,26.4c-2.2,0-4.2-0.8-5.8-2.4c-1.5-1.5-2.4-3.6-2.4-5.8c0-2.2,0.8-4.2,2.4-5.7
		c1.5-1.5,3.6-2.4,5.7-2.4h0c4.5,0,8.1,3.7,8.1,8.1c0,2.2-0.9,4.2-2.4,5.8C72.9,25.6,70.9,26.4,68.7,26.4"/>
	<path class="st0" d="M93.9,76.6H1.5c-0.5,0-1-0.3-1.3-0.7c-0.3-0.4-0.3-1-0.1-1.5l16.8-39.3c0.2-0.6,0.8-0.9,1.4-0.9H58
		c0.9,0,1.5,0.7,1.5,1.5c0,0.9-0.7,1.5-1.5,1.5H19.3L3.9,73.5h87.6l-15-35.1c-0.3-0.8,0-1.7,0.8-2c0.8-0.3,1.7,0,2,0.8l15.9,37.2
		c0.2,0.5,0.2,1-0.1,1.5C94.9,76.3,94.4,76.6,93.9,76.6"/>
	<path class="st0" d="M68.5,76.3c-0.8,0-1.4-0.6-1.5-1.4c0-0.1-1-7.7-11.6-9.5c-1-0.2-2.6-0.3-4.4-0.5c-10-1-19.2-2.2-21-6.9
		c-1.1-3,0.5-5.3,1.9-7.2c1.5-2,1.9-2.9,1.2-4.2c-0.5-0.8-2-1.5-3.4-2.1c-2.9-1.2-6.8-3-6.8-7.6c0-0.9,0.7-1.5,1.5-1.5h0
		c0.8,0,1.5,0.7,1.5,1.5c0,2.5,1.9,3.5,4.9,4.8c1.9,0.8,3.9,1.7,4.9,3.4c1.8,3.1,0,5.7-1.4,7.6c-1.3,1.8-2,2.9-1.5,4.3
		c1.2,3.3,12.8,4.4,18.4,5c1.9,0.2,3.5,0.3,4.6,0.5C68.8,64.6,70,74.2,70,74.6c0.1,0.8-0.5,1.6-1.4,1.7
		C68.6,76.3,68.6,76.3,68.5,76.3"/>
</g>
</svg>
