<?xml version="1.0" encoding="utf-8"?>
<!-- Generator: Adobe Illustrator 21.1.0, SVG Export Plug-In . SVG Version: 6.00 Build 0)  -->
<svg version="1.1" id="Слой_1" xmlns="http://www.w3.org/2000/svg" xmlns:xlink="http://www.w3.org/1999/xlink" x="0px" y="0px"
	 viewBox="0 0 72 81" style="enable-background:new 0 0 72 81;" xml:space="preserve">
<style type="text/css">
	.st0{clip-path:url(#SVGID_2_);fill:#9F9F57;}
</style>
<g>
	<defs>
		<rect id="SVGID_1_" y="0" width="71.6" height="76.1"/>
	</defs>
	<clipPath id="SVGID_2_">
		<use xlink:href="#SVGID_1_"  style="overflow:visible;"/>
	</clipPath>
	<path class="st0" d="M69,73.4h-6.4V24.5c0-3.1-1.9-5.5-4.2-5.5l-20.1,0l5.7-7.1h22.3c1.5,0,2.8,1.6,2.8,3.5V73.4z M37.2,21.7
		l21.1,0c0.7,0,1.6,1.2,1.6,2.8v25.8C41.5,48.8,37.3,34.1,37.2,21.7 M11.8,50.4V24.5c0-1.6,0.8-2.8,1.6-2.8l15.2,0l1.4-0.1l4.4,0
		C33.8,44.6,22.1,50,11.8,50.4 M9.1,73.4H2.7v-58c0-1.9,1.3-3.5,2.8-3.5h21.9L33,19l-3.1,0l-1.4,0.1l-15.1,0c-2.4,0-4.2,2.4-4.2,5.5
		L9.1,73.4L9.1,73.4z M30.7,2.7c2,0,3.6,1.6,3.6,3.6c0,0.7,0.6,1.3,1.3,1.3C36.4,7.6,37,7,37,6.2c0-1,0.4-1.9,1-2.5
		c0.7-0.7,1.6-1,2.5-1c2,0,3.6,1.6,3.6,3.6c0,0.7-0.2,1.3-0.5,1.9l-1,1.3c-0.4,0.2-0.6,0.5-0.7,0.9l-6.2,7.8l-7.8-9.7
		c-0.5-0.6-0.7-1.4-0.7-2.1C27.2,4.3,28.8,2.7,30.7,2.7 M66.2,9.3H46c0.5-0.9,0.8-2,0.8-3C46.8,2.8,44,0,40.5,0h0
		c-1.7,0-3.2,0.6-4.4,1.8C36,2,35.8,2.2,35.6,2.4C34.5,0.9,32.7,0,30.7,0c-3.4,0-6.2,2.8-6.2,6.2c0,1.1,0.3,2.1,0.8,3H5.4
		C2.4,9.3,0,12,0,15.4v59.3c0,0.7,0.6,1.3,1.3,1.3h9.1c0.7,0,1.3-0.6,1.3-1.3V53c8.2-0.3,20.1-3.7,24-20.7C38.7,44.8,47,52,59.9,53
		v21.8c0,0.7,0.6,1.3,1.3,1.3h9.1c0.7,0,1.3-0.6,1.3-1.3V15.4C71.6,12,69.2,9.3,66.2,9.3"/>
</g>
</svg>
