<?xml version="1.0" encoding="utf-8"?>
<!-- Generator: Adobe Illustrator 21.1.0, SVG Export Plug-In . SVG Version: 6.00 Build 0)  -->
<svg version="1.1" id="Слой_1" xmlns="http://www.w3.org/2000/svg" xmlns:xlink="http://www.w3.org/1999/xlink" x="0px" y="0px"
	 viewBox="0 0 81 81" style="enable-background:new 0 0 81 81;" xml:space="preserve">
<style type="text/css">
	.st0{clip-path:url(#SVGID_2_);fill:#9F9F57;}
	.st1{clip-path:url(#SVGID_2_);fill:none;stroke:#9F9F57;stroke-width:3.542;}
</style>
<g>
	<defs>
		<rect id="SVGID_1_" x="0" y="0" width="80.7" height="76.9"/>
	</defs>
	<clipPath id="SVGID_2_">
		<use xlink:href="#SVGID_1_"  style="overflow:visible;"/>
	</clipPath>
	<path class="st0" d="M77.6,73.7H3.1V11.8h13.2v4.7c0,0.9,0.7,1.6,1.6,1.6c0.9,0,1.6-0.7,1.6-1.6v-4.7h40.1v4.7
		c0,0.9,0.7,1.6,1.6,1.6s1.6-0.7,1.6-1.6v-4.7h14.9V73.7z M79.1,8.7H62.6V1.6c0-0.9-0.7-1.6-1.6-1.6s-1.6,0.7-1.6,1.6v7.1H19.4V1.6
		c0-0.9-0.7-1.6-1.6-1.6c-0.9,0-1.6,0.7-1.6,1.6v7.1H1.6C0.7,8.7,0,9.4,0,10.3v65.1c0,0.9,0.7,1.6,1.6,1.6h77.6
		c0.9,0,1.6-0.7,1.6-1.6V10.3C80.7,9.4,80,8.7,79.1,8.7"/>
	<path class="st0" d="M22.1,36.2h-6.5v-6.5h6.5V36.2z M23.6,26.5H14c-0.9,0-1.6,0.7-1.6,1.6v9.6c0,0.9,0.7,1.6,1.6,1.6h9.6
		c0.9,0,1.6-0.7,1.6-1.6v-9.6C25.2,27.2,24.5,26.5,23.6,26.5"/>
	<path class="st0" d="M44,36.2h-6.5v-6.5H44V36.2z M45.6,26.5h-9.6c-0.9,0-1.6,0.7-1.6,1.6v9.6c0,0.9,0.7,1.6,1.6,1.6h9.6
		c0.9,0,1.6-0.7,1.6-1.6v-9.6C47.1,27.2,46.4,26.5,45.6,26.5"/>
	<path class="st0" d="M22.1,58.3h-6.5v-6.5h6.5V58.3z M23.6,48.7H14c-0.9,0-1.6,0.7-1.6,1.6v9.6c0,0.9,0.7,1.6,1.6,1.6h9.6
		c0.9,0,1.6-0.7,1.6-1.6v-9.6C25.2,49.4,24.5,48.7,23.6,48.7"/>
	<path class="st0" d="M44,58.3h-6.5v-6.5H44V58.3z M45.6,48.7h-9.6c-0.9,0-1.6,0.7-1.6,1.6v9.6c0,0.9,0.7,1.6,1.6,1.6h9.6
		c0.9,0,1.6-0.7,1.6-1.6v-9.6C47.1,49.4,46.4,48.7,45.6,48.7"/>
	<path class="st0" d="M65,36.2h-6.5v-6.5H65V36.2z M56.9,26.5c-0.9,0-1.6,0.7-1.6,1.6v9.6c0,0.9,0.7,1.6,1.6,1.6h9.6
		c0.9,0,1.6-0.7,1.6-1.6v-9.6c0-0.9-0.7-1.6-1.6-1.6H56.9z"/>
	<path class="st1" d="M62.2,48.9c0,0,0.5-4.2,4.7-4.3c4.2-0.1,5.2,4.2,4.2,6.6c-0.9,2.5-8.9,11-8.9,11s-8-8.6-8.9-11
		c-0.9-2.5,0.1-6.7,4.2-6.6C61.7,44.7,62.2,48.9,62.2,48.9z"/>
</g>
</svg>
